<svg width="47" height="47" viewBox="0 0 47 47" fill="none" xmlns="http://www.w3.org/2000/svg">
<path d="M31.3335 17.625C28.1453 17.625 25.4585 20.3118 25.4585 23.5C25.4585 26.6882 28.1453 29.375 31.3335 29.375C34.5217 29.375 37.2085 26.6882 37.2085 23.5C37.2085 20.3118 34.5217 17.625 31.3335 17.625Z" fill="#243443"/>
<path d="M31.3332 11.75H15.6665C9.21184 11.75 3.95175 17.0023 3.9165 23.4726V23.5548C3.93613 26.66 5.18212 29.6316 7.38299 31.8222C9.58386 34.0128 12.5613 35.2449 15.6665 35.25H31.3332C37.8133 35.25 43.0832 29.9801 43.0832 23.5C43.0832 17.0199 37.8133 11.75 31.3332 11.75ZM31.3332 31.3333H15.6665C13.5933 31.3302 11.6056 30.5066 10.1378 29.0425C8.67002 27.5784 7.84145 25.5928 7.83317 23.5196C7.841 19.1897 11.3543 15.6667 15.6665 15.6667H31.3332C35.6533 15.6667 39.1665 19.1799 39.1665 23.5C39.1665 27.8201 35.6533 31.3333 31.3332 31.3333Z" fill="#243443"/>
</svg>
