<svg width="19" height="19" viewBox="0 0 19 19" fill="none" xmlns="http://www.w3.org/2000/svg">
<path d="M9.50016 1.58337C5.13491 1.58337 1.5835 5.13479 1.5835 9.50004V12.7799C1.5835 13.5906 2.29362 14.25 3.16683 14.25H3.9585C4.16846 14.25 4.36982 14.1666 4.51829 14.0182C4.66675 13.8697 4.75016 13.6683 4.75016 13.4584V9.38683C4.75016 9.17687 4.66675 8.97551 4.51829 8.82704C4.36982 8.67857 4.16846 8.59517 3.9585 8.59517H3.23966C3.67983 5.53142 6.31608 3.16671 9.50016 3.16671C12.6842 3.16671 15.3205 5.53142 15.7607 8.59517H15.0418C14.8319 8.59517 14.6305 8.67857 14.482 8.82704C14.3336 8.97551 14.2502 9.17687 14.2502 9.38683V14.25C14.2502 15.1232 13.54 15.8334 12.6668 15.8334H11.0835V15.0417H7.91683V17.4167H12.6668C14.4132 17.4167 15.8335 15.9965 15.8335 14.25C16.7067 14.25 17.4168 13.5906 17.4168 12.7799V9.50004C17.4168 5.13479 13.8654 1.58337 9.50016 1.58337Z" fill="#243443"/>
</svg>
