<svg width="11" height="11" viewBox="0 0 11 11" fill="none" xmlns="http://www.w3.org/2000/svg">
<path d="M1.71875 1.71875V9.28125H9.28125V1.71875H1.71875ZM1.375 1.03125H9.625C9.71617 1.03125 9.8036 1.06747 9.86807 1.13193C9.93253 1.1964 9.96875 1.28383 9.96875 1.375V9.625C9.96875 9.71617 9.93253 9.8036 9.86807 9.86807C9.8036 9.93253 9.71617 9.96875 9.625 9.96875H1.375C1.28383 9.96875 1.1964 9.93253 1.13193 9.86807C1.06747 9.8036 1.03125 9.71617 1.03125 9.625V1.375C1.03125 1.28383 1.06747 1.1964 1.13193 1.13193C1.1964 1.06747 1.28383 1.03125 1.375 1.03125V1.03125Z" fill="black"/>
<path d="M4.12499 3.09375C4.58332 3.09375 4.81249 3.32292 4.81249 3.78125C4.81249 4.23958 4.58332 4.46875 4.12499 4.46875C3.66665 4.46875 3.43749 4.23958 3.43749 3.78125C3.43749 3.32292 3.66665 3.09375 4.12499 3.09375ZM1.99168 9.42081L1.4458 9.00281L3.76749 5.973C3.84982 5.86547 3.95253 5.7752 4.06975 5.70737C4.18697 5.63953 4.31641 5.59545 4.45067 5.57763C4.58492 5.55982 4.72138 5.56863 4.85223 5.60356C4.98308 5.63848 5.10578 5.69884 5.2133 5.78119L5.23324 5.797L6.55324 6.86194C6.62426 6.9191 6.71508 6.94571 6.80572 6.93591C6.89635 6.92611 6.97939 6.88071 7.03655 6.80969L9.35686 3.9105L9.89311 4.3395L7.57486 7.238L7.57211 7.24144C7.48709 7.34693 7.38212 7.43463 7.26319 7.49954C7.14427 7.56445 7.01371 7.60528 6.879 7.61971C6.74428 7.63414 6.60804 7.62188 6.47806 7.58363C6.34809 7.54539 6.22692 7.48191 6.12149 7.39681L4.80149 6.33256L4.79461 6.32706C4.72227 6.27184 4.63099 6.24757 4.54077 6.25955C4.45056 6.27154 4.36878 6.31881 4.31336 6.391L1.99168 9.42081Z" fill="black"/>
</svg>
