<svg width="11" height="11" viewBox="0 0 11 11" fill="none" xmlns="http://www.w3.org/2000/svg">
<path d="M8.29056 8.53875C7.70064 9.08065 6.96571 9.43907 6.17548 9.57024C5.38526 9.70141 4.57394 9.59967 3.84058 9.27742C3.10722 8.95518 2.48355 8.42638 2.04571 7.75559C1.60788 7.08479 1.37482 6.30104 1.375 5.5H2.0625C2.06245 6.19238 2.27149 6.86864 2.66224 7.44022C3.05298 8.0118 3.60723 8.45206 4.2524 8.70335C4.89757 8.95464 5.60358 9.00525 6.278 8.84854C6.95241 8.69184 7.56378 8.33513 8.03206 7.82512H7.03312C6.94196 7.82512 6.85452 7.78891 6.79006 7.72444C6.72559 7.65998 6.68937 7.57254 6.68937 7.48137C6.68937 7.39021 6.72559 7.30277 6.79006 7.23831C6.85452 7.17384 6.94196 7.13762 7.03312 7.13762H8.63431C8.72548 7.13762 8.81291 7.17384 8.87738 7.23831C8.94184 7.30277 8.97806 7.39021 8.97806 7.48137V9.08118C8.97806 9.17235 8.94184 9.25979 8.87738 9.32425C8.81291 9.38872 8.72548 9.42493 8.63431 9.42493C8.54314 9.42493 8.45571 9.38872 8.39124 9.32425C8.32678 9.25979 8.29056 9.17235 8.29056 9.08118V8.53806V8.53875ZM2.96794 3.17556H3.96687C4.05804 3.17556 4.14548 3.21178 4.20994 3.27624C4.27441 3.34071 4.31062 3.42814 4.31062 3.51931C4.31062 3.61048 4.27441 3.69791 4.20994 3.76238C4.14548 3.82685 4.05804 3.86306 3.96687 3.86306H2.365C2.27383 3.86306 2.1864 3.82685 2.12193 3.76238C2.05747 3.69791 2.02125 3.61048 2.02125 3.51931V1.91813C2.02125 1.82696 2.05747 1.73952 2.12193 1.67506C2.1864 1.61059 2.27383 1.57438 2.365 1.57438C2.45617 1.57438 2.5436 1.61059 2.60807 1.67506C2.67253 1.73952 2.70875 1.82696 2.70875 1.91813V2.46125C3.29859 1.91868 4.03372 1.55968 4.82428 1.42813C5.61485 1.29658 6.42662 1.39817 7.16038 1.7205C7.89414 2.04282 8.51812 2.57192 8.95606 3.24312C9.39399 3.91432 9.62692 4.69856 9.62637 5.5H8.93887C8.93893 4.80753 8.72986 4.13118 8.33902 3.55955C7.94819 2.98791 7.39382 2.54765 6.74853 2.29641C6.10324 2.04518 5.39712 1.99469 4.72265 2.15156C4.04818 2.30843 3.43681 2.66535 2.96862 3.17556H2.96794Z" fill="black"/>
</svg>
