<svg width="12" height="12" viewBox="0 0 12 12" fill="none" xmlns="http://www.w3.org/2000/svg">
<path d="M3.3942 1.13357L4.10563 0.919286C4.42948 0.821582 4.77782 0.845072 5.08562 0.985369C5.39342 1.12567 5.63965 1.37318 5.77834 1.68171L6.22105 2.66657C6.34035 2.93188 6.37358 3.22789 6.31609 3.51305C6.25859 3.79821 6.11326 4.05821 5.90048 4.25657L5.12691 4.97786C5.11735 4.98679 5.10951 4.99739 5.10377 5.00914C5.02277 5.17457 5.14577 5.61643 5.53105 6.28414C5.96563 7.03672 6.3012 7.33414 6.45677 7.28829L7.47205 6.97757C7.7501 6.89266 8.04775 6.89689 8.32328 6.98965C8.59881 7.08242 8.8384 7.25907 9.00848 7.49486L9.63763 8.36614C9.83515 8.63972 9.92664 8.97569 9.89511 9.31164C9.86358 9.64759 9.71117 9.96067 9.4662 10.1927L8.92491 10.7049C8.73668 10.8832 8.50811 11.0133 8.25871 11.0841C8.0093 11.1549 7.74647 11.1643 7.49263 11.1116C5.98534 10.7979 4.63491 9.58414 3.42977 7.497C2.2242 5.40857 1.84834 3.63 2.33263 2.16729C2.41369 1.9224 2.55251 1.70063 2.73736 1.52071C2.9222 1.34079 3.14764 1.208 3.39463 1.13357H3.3942ZM3.5802 1.749C3.432 1.79364 3.29673 1.87329 3.1858 1.98123C3.07488 2.08917 2.99157 2.22222 2.94291 2.36914C2.52548 3.62957 2.86363 5.23072 3.98648 7.17557C5.10848 9.11914 6.32477 10.212 7.62334 10.482C7.77572 10.5137 7.9335 10.508 8.08321 10.4655C8.23292 10.4229 8.37011 10.3448 8.48306 10.2377L9.02391 9.726C9.15587 9.60109 9.23799 9.43251 9.25502 9.25161C9.27204 9.07071 9.22282 8.88977 9.11648 8.74243L8.48734 7.87072C8.39577 7.74378 8.26679 7.64867 8.11846 7.59872C7.97014 7.54876 7.8099 7.54647 7.6602 7.59214L6.64234 7.90371C6.0792 8.07129 5.54948 7.602 4.97434 6.60514C4.48705 5.76172 4.3182 5.15229 4.52648 4.72672C4.56677 4.64443 4.62163 4.57029 4.68848 4.50771L5.46205 3.78643C5.57667 3.67962 5.65496 3.5396 5.68594 3.38603C5.71692 3.23245 5.69902 3.07303 5.63477 2.93014L5.19205 1.94571C5.11738 1.77954 4.98477 1.64623 4.81899 1.57067C4.65322 1.49512 4.46561 1.48249 4.2912 1.53514L3.57977 1.74943L3.5802 1.749Z" fill="black"/>
</svg>
