<svg width="14" height="12" viewBox="0 0 14 12" fill="none" xmlns="http://www.w3.org/2000/svg">
<path fill-rule="evenodd" clip-rule="evenodd" d="M12.4163 7.49996C13.1781 7.49996 13.7958 6.82841 13.7958 5.99995C13.7958 5.1715 13.1781 4.49994 12.4163 4.49994L4.71009 4.49994L6.49365 2.56057C7.03235 1.97482 7.03235 1.02501 6.49365 0.439257C5.95482 -0.146497 5.08145 -0.146497 4.54261 0.439257L0.404091 4.93929C0.145433 5.22054 0.000170087 5.60215 0.000170052 5.99995C0.000170018 6.39775 0.145433 6.77936 0.404091 7.06061L4.54261 11.5607C5.08145 12.1464 5.95482 12.1464 6.49365 11.5607C7.03235 10.9749 7.03235 10.0251 6.49365 9.43931L4.71009 7.49996L12.4163 7.49996Z" fill="#333333"/>
</svg>
