<svg width="110" height="13" viewBox="0 0 110 13" fill="none" xmlns="http://www.w3.org/2000/svg">
<path d="M0 11.9526L3.5938 0.882407L4.79709 0.738013L8.40693 11.9526H7.17156L6.19289 8.82407H2.198L1.23537 11.9526H0ZM4.26764 2.03756H4.17138C4.16068 2.32635 4.1072 2.63118 4.01094 2.95205L2.51887 7.78123H5.87202L4.42808 2.95205C4.3639 2.71674 4.31577 2.50818 4.28368 2.32635C4.26229 2.13382 4.25694 2.03756 4.26764 2.03756Z" fill="black"/>
<path d="M13.8832 6.48168C13.9902 6.12872 14.0437 5.74902 14.0437 5.34257C14.0437 4.93613 13.9956 4.59921 13.8993 4.33182L14.878 4.21951C15.1026 4.34786 15.2149 4.65269 15.2149 5.134C15.2149 5.60462 15.14 6.08593 14.9903 6.57794C14.8405 7.05926 14.5357 7.81866 14.0758 8.85616L12.712 11.9526H11.7013L10.129 6.69025C9.80813 5.62067 9.51934 4.86126 9.26264 4.41204L10.0969 4.2516C10.2574 4.2516 10.3857 4.33182 10.482 4.49225C10.5889 4.65269 10.7173 4.97357 10.867 5.45488L12.4072 10.5568H12.5035C12.4714 10.4712 12.4553 10.3589 12.4553 10.2199C12.4553 10.0701 12.5035 9.88296 12.5997 9.65835C13.3591 7.89353 13.787 6.83464 13.8832 6.48168Z" fill="black"/>
<path d="M21.7975 6.48168V5.31049C21.4873 5.15005 21.022 5.06983 20.4017 5.06983C18.8187 5.06983 18.0272 6.26242 18.0272 8.64759C18.0272 10.391 18.5566 11.2627 19.6155 11.2627C20.0647 11.2627 20.4391 11.113 20.7386 10.8135C21.0487 10.5033 21.2787 10.0862 21.4285 9.56208C21.6745 8.65294 21.7975 7.62614 21.7975 6.48168ZM19.5032 12.1451C18.5727 12.1451 17.8935 11.8243 17.4656 11.1825C17.0378 10.5408 16.8239 9.63161 16.8239 8.45506C16.8239 7.26783 17.1234 6.26776 17.7223 5.45488C18.332 4.6313 19.2251 4.21951 20.4017 4.21951C20.8188 4.21951 21.2306 4.26229 21.637 4.34786C22.0542 4.43343 22.4659 4.55643 22.8724 4.71687V8.79198C22.8724 9.88296 22.9687 10.5728 23.1612 10.8616C23.343 11.1504 23.6478 11.2948 24.0757 11.2948L24.1078 12.0168C23.9366 12.0596 23.7227 12.081 23.466 12.081C22.8991 12.081 22.4927 11.8831 22.2467 11.4873C22.0649 11.1985 21.9739 10.8563 21.9739 10.4605C21.9739 10.3322 21.9846 10.1931 22.006 10.0434H21.9098C21.7279 10.6851 21.4338 11.1985 21.0274 11.5836C20.6316 11.958 20.1236 12.1451 19.5032 12.1451Z" fill="black"/>
<path d="M27.2563 12.081C26.7643 12.081 26.4221 11.9633 26.2295 11.728C26.037 11.4927 25.9408 11.1076 25.9408 10.5728V4.41204H27.0959V9.91505C27.0959 10.4819 27.1387 10.8509 27.2243 11.0221C27.3098 11.1825 27.5558 11.2627 27.9623 11.2627L27.9944 11.9686C27.7484 12.0435 27.5024 12.081 27.2563 12.081ZM25.8285 1.89316C25.8285 1.39046 26.0745 1.13911 26.5665 1.13911C27.0157 1.13911 27.2403 1.38511 27.2403 1.87712C27.2403 2.35843 27.005 2.59909 26.5344 2.59909C26.0638 2.59909 25.8285 2.36378 25.8285 1.89316Z" fill="black"/>
<path d="M30.171 10.5728V0.192526L31.3262 0V9.91505C31.3262 10.4819 31.369 10.8509 31.4546 11.0221C31.5401 11.1825 31.7861 11.2627 32.1926 11.2627L32.2246 11.9686C32.0535 12.0435 31.7647 12.081 31.3583 12.081C30.9518 12.081 30.6524 11.9633 30.4598 11.728C30.2673 11.4927 30.171 11.1076 30.171 10.5728Z" fill="black"/>
<path d="M38.7813 6.48168V5.31049C38.4711 5.15005 38.0058 5.06983 37.3855 5.06983C35.8025 5.06983 35.011 6.26242 35.011 8.64759C35.011 10.391 35.5404 11.2627 36.5993 11.2627C37.0486 11.2627 37.4229 11.113 37.7224 10.8135C38.0326 10.5033 38.2625 10.0862 38.4123 9.56208C38.6583 8.65294 38.7813 7.62614 38.7813 6.48168ZM36.487 12.1451C35.5565 12.1451 34.8773 11.8243 34.4495 11.1825C34.0216 10.5408 33.8077 9.63161 33.8077 8.45506C33.8077 7.26783 34.1072 6.26776 34.7062 5.45488C35.3158 4.6313 36.2089 4.21951 37.3855 4.21951C37.8026 4.21951 38.2144 4.26229 38.6208 4.34786C39.038 4.43343 39.4498 4.55643 39.8562 4.71687V8.79198C39.8562 9.88296 39.9525 10.5728 40.145 10.8616C40.3268 11.1504 40.6317 11.2948 41.0595 11.2948L41.0916 12.0168C40.9205 12.0596 40.7065 12.081 40.4498 12.081C39.883 12.081 39.4765 11.8831 39.2305 11.4873C39.0487 11.1985 38.9578 10.8563 38.9578 10.4605C38.9578 10.3322 38.9685 10.1931 38.9899 10.0434H38.8936C38.7118 10.6851 38.4176 11.1985 38.0112 11.5836C37.6154 11.958 37.1074 12.1451 36.487 12.1451Z" fill="black"/>
<path d="M43.9674 9.40165V11.0542C44.2776 11.2146 44.7429 11.2948 45.3632 11.2948C46.9462 11.2948 47.7377 10.0434 47.7377 7.54057C47.7377 5.93619 47.235 5.134 46.2296 5.134C45.6627 5.134 45.1975 5.37466 44.8338 5.85597C44.4808 6.33729 44.2455 6.87743 44.1279 7.47639C44.0209 8.06467 43.9674 8.70642 43.9674 9.40165ZM43.9995 4.57247C43.9995 5.13935 43.9567 5.61532 43.8712 6.00037H43.9674C44.2027 5.3907 44.5129 4.94148 44.898 4.65269C45.283 4.3639 45.7911 4.21951 46.4221 4.21951C47.3527 4.21951 48.0051 4.52434 48.3795 5.134C48.7538 5.73297 48.941 6.63677 48.941 7.8454C48.941 9.05403 48.6415 10.0755 48.0425 10.9098C47.4543 11.7333 46.5612 12.1451 45.3632 12.1451C44.9461 12.1451 44.529 12.1023 44.1118 12.0168C43.7054 11.9312 43.2989 11.8082 42.8925 11.6478V0.176482L43.9995 0V4.57247Z" fill="black"/>
<path d="M51.3538 10.5728V0.192526L52.509 0V9.91505C52.509 10.4819 52.5518 10.8509 52.6373 11.0221C52.7229 11.1825 52.9689 11.2627 53.3753 11.2627L53.4074 11.9686C53.2363 12.0435 52.9475 12.081 52.5411 12.081C52.1346 12.081 51.8351 11.9633 51.6426 11.728C51.4501 11.4927 51.3538 11.1076 51.3538 10.5728Z" fill="black"/>
<path d="M59.4025 6.06454C59.4025 5.75436 59.3063 5.51906 59.1137 5.35862C58.9212 5.19818 58.6645 5.11796 58.3436 5.11796C57.7019 5.11796 57.1992 5.38536 56.8355 5.92015C56.4719 6.44425 56.2633 7.08065 56.2098 7.82936C58.3383 7.82936 59.4025 7.24109 59.4025 6.06454ZM58.0228 12.1451C56.0119 12.1451 55.0065 10.8616 55.0065 8.29463C55.0065 7.11808 55.3007 6.14476 55.8889 5.37466C56.4879 4.60456 57.3275 4.21951 58.4078 4.21951C59.071 4.21951 59.5951 4.37995 59.9801 4.70082C60.3759 5.011 60.5737 5.44418 60.5737 6.00037C60.5737 6.54586 60.44 6.99508 60.1726 7.34804C59.9159 7.69031 59.563 7.95236 59.1137 8.13419C58.2688 8.47646 57.2901 8.64759 56.1777 8.64759C56.1777 10.3482 56.8569 11.1985 58.2153 11.1985C58.8998 11.1985 59.5469 11.0114 60.1566 10.637L60.3331 11.2627C60.0657 11.5301 59.7127 11.744 59.2742 11.9045C58.8463 12.0649 58.4292 12.1451 58.0228 12.1451Z" fill="black"/>
<path d="M71.7174 10.252C71.4393 10.8295 71.0489 11.2895 70.5462 11.6317C70.0542 11.974 69.4659 12.1451 68.7814 12.1451C68.0968 12.1451 67.5086 12.0061 67.0166 11.728C66.5352 11.4499 66.1662 11.0542 65.9095 10.5408C65.4496 9.61021 65.2197 8.34811 65.2197 6.75443C65.2197 5.21422 65.4764 3.93072 65.9898 2.90392C66.2678 2.35843 66.6582 1.93595 67.1609 1.63646C67.6743 1.33698 68.2733 1.18724 68.9578 1.18724C69.6531 1.18724 70.236 1.32094 70.7066 1.58833C71.1879 1.84503 71.5569 2.21939 71.8136 2.7114C72.295 3.63124 72.5356 4.83987 72.5356 6.33729C72.5356 7.8347 72.2629 9.1396 71.7174 10.252ZM67.5781 10.7814C67.9097 11.0274 68.3161 11.1504 68.7974 11.1504C69.2787 11.1504 69.6905 11.0007 70.0328 10.7012C70.3857 10.391 70.6478 9.98457 70.8189 9.48186C71.1398 8.54063 71.3002 7.49244 71.3002 6.33729C71.3002 5.19283 71.1719 4.2516 70.9152 3.51358C70.605 2.62583 69.9579 2.18195 68.9739 2.18195C68.4819 2.18195 68.0594 2.321 67.7064 2.59909C67.3535 2.86649 67.0914 3.23549 66.9203 3.70611C66.6101 4.56178 66.455 5.57788 66.455 6.75443C66.455 8.8829 66.8294 10.2252 67.5781 10.7814Z" fill="black"/>
<path d="M79.6232 9.48186C79.6232 10.0487 79.5911 10.5247 79.5269 10.9098H83.7143L83.6662 11.9526H78.3718L78.4199 0.882407L79.6232 0.689882V9.48186Z" fill="black"/>
<path d="M87.3108 12.081C86.8188 12.081 86.4765 11.9633 86.284 11.728C86.0915 11.4927 85.9952 11.1076 85.9952 10.5728V4.41204H87.1503V9.91505C87.1503 10.4819 87.1931 10.8509 87.2787 11.0221C87.3643 11.1825 87.6103 11.2627 88.0167 11.2627L88.0488 11.9686C87.8028 12.0435 87.5568 12.081 87.3108 12.081ZM85.8829 1.89316C85.8829 1.39046 86.1289 1.13911 86.6209 1.13911C87.0701 1.13911 87.2947 1.38511 87.2947 1.87712C87.2947 2.35843 87.0594 2.59909 86.5888 2.59909C86.1182 2.59909 85.8829 2.36378 85.8829 1.89316Z" fill="black"/>
<path d="M91.3325 4.73291C91.3325 5.29979 91.2897 5.77575 91.2042 6.1608H91.3004C91.4502 5.56184 91.7389 5.09122 92.1668 4.74895C92.6053 4.39599 93.1348 4.21951 93.7551 4.21951C94.6001 4.21951 95.183 4.43343 95.5039 4.86126C95.8248 5.2784 95.9852 5.90945 95.9852 6.75443C95.9852 6.78651 95.9745 7.332 95.9531 8.39089C95.9424 9.44978 95.9371 10.1236 95.9371 10.4124C95.9371 10.7012 95.9692 10.9151 96.0333 11.0542C96.1082 11.1932 96.3382 11.2627 96.7232 11.2627L96.7553 11.9847C96.6056 12.0489 96.3863 12.081 96.0975 12.081C95.5841 12.081 95.2311 11.9633 95.0386 11.728C94.8568 11.4927 94.7659 11.1183 94.7659 10.6049C94.7659 10.5835 94.7766 10.006 94.798 8.8722C94.8193 7.73844 94.8301 7.15017 94.8301 7.10739C94.8301 6.48703 94.7498 6.00572 94.5894 5.66345C94.429 5.31049 94.1081 5.134 93.6268 5.134C93.1561 5.134 92.7604 5.28375 92.4395 5.58323C92.1293 5.88271 91.894 6.27311 91.7336 6.75443C91.4448 7.68496 91.3004 8.67433 91.3004 9.72252V11.9526H90.1934V4.41204L91.3325 4.26764V4.73291Z" fill="black"/>
<path d="M102.786 6.06454C102.786 5.75436 102.69 5.51906 102.498 5.35862C102.305 5.19818 102.048 5.11796 101.728 5.11796C101.086 5.11796 100.583 5.38536 100.219 5.92015C99.8558 6.44425 99.6473 7.08065 99.5938 7.82936C101.722 7.82936 102.786 7.24109 102.786 6.06454ZM101.407 12.1451C99.3959 12.1451 98.3905 10.8616 98.3905 8.29463C98.3905 7.11808 98.6846 6.14476 99.2729 5.37466C99.8719 4.60456 100.712 4.21951 101.792 4.21951C102.455 4.21951 102.979 4.37995 103.364 4.70082C103.76 5.011 103.958 5.44418 103.958 6.00037C103.958 6.54586 103.824 6.99508 103.557 7.34804C103.3 7.69031 102.947 7.95236 102.498 8.13419C101.653 8.47646 100.674 8.64759 99.5617 8.64759C99.5617 10.3482 100.241 11.1985 101.599 11.1985C102.284 11.1985 102.931 11.0114 103.541 10.637L103.717 11.2627C103.45 11.5301 103.097 11.744 102.658 11.9045C102.23 12.0649 101.813 12.1451 101.407 12.1451Z" fill="black"/>
<path d="M107.257 11.2627C107.727 11.2627 108.123 11.1558 108.444 10.9418C108.765 10.7172 108.925 10.4017 108.925 9.99527C108.925 9.56743 108.722 9.23051 108.315 8.98451C108.112 8.86685 107.866 8.7492 107.577 8.63155C107.289 8.5032 107.112 8.42298 107.048 8.39089C106.513 8.15558 106.096 7.87749 105.797 7.55661C105.508 7.23574 105.363 6.78116 105.363 6.19289C105.363 5.59393 105.604 5.11796 106.085 4.765C106.567 4.40134 107.134 4.21951 107.786 4.21951C108.438 4.21951 109.027 4.34786 109.551 4.60456L109.374 5.32653C108.84 5.17679 108.364 5.10192 107.946 5.10192C107.54 5.10192 107.187 5.19818 106.888 5.39071C106.588 5.57253 106.438 5.82923 106.438 6.1608C106.438 6.49238 106.54 6.75442 106.743 6.94695C106.946 7.12878 107.155 7.26783 107.369 7.36409C107.593 7.46035 107.829 7.56196 108.075 7.66892C108.332 7.76518 108.497 7.83471 108.572 7.87749C108.647 7.92027 108.786 8.00049 108.989 8.11814C109.193 8.2251 109.332 8.32671 109.406 8.42298C109.492 8.51924 109.588 8.64759 109.695 8.80803C109.898 9.07542 110 9.45513 110 9.94713C110 10.6531 109.738 11.1985 109.214 11.5836C108.69 11.958 108.021 12.1451 107.208 12.1451C106.406 12.1451 105.695 11.8777 105.075 11.3429L105.251 10.7012C105.861 11.0755 106.529 11.2627 107.257 11.2627Z" fill="black"/>
</svg>
