<svg width="11" height="11" viewBox="0 0 11 11" fill="none" xmlns="http://www.w3.org/2000/svg">
<path d="M1.84112 8.17713C1.91249 8.24876 1.96717 8.33525 2.00127 8.43044C2.03538 8.52562 2.04807 8.62716 2.03844 8.72781C1.99012 9.19365 1.89852 9.65397 1.76481 10.1028C2.72387 9.88075 3.30963 9.62363 3.57569 9.48888C3.7266 9.41244 3.90039 9.39433 4.06381 9.438C4.5323 9.5629 5.01515 9.62577 5.5 9.625C8.24725 9.625 10.3125 7.69519 10.3125 5.5C10.3125 3.3055 8.24725 1.375 5.5 1.375C2.75275 1.375 0.6875 3.3055 0.6875 5.5C0.6875 6.50925 1.11169 7.44563 1.84112 8.17713ZM1.50219 10.8618C1.3393 10.8941 1.17588 10.9237 1.012 10.9505C0.8745 10.9725 0.77 10.8295 0.824313 10.7016C0.885357 10.5577 0.941308 10.4116 0.992062 10.2637L0.994125 10.2568C1.16462 9.76181 1.3035 9.19256 1.35438 8.6625C0.510813 7.81688 0 6.71 0 5.5C0 2.84213 2.46262 0.6875 5.5 0.6875C8.53738 0.6875 11 2.84213 11 5.5C11 8.15787 8.53738 10.3125 5.5 10.3125C4.95526 10.3132 4.41278 10.2425 3.88644 10.1021C3.52894 10.2829 2.75962 10.6122 1.50219 10.8618V10.8618Z" fill="black"/>
<path d="M2.75 3.78125C2.75 3.69008 2.78622 3.60265 2.85068 3.53818C2.91515 3.47372 3.00258 3.4375 3.09375 3.4375H7.90625C7.99742 3.4375 8.08485 3.47372 8.14932 3.53818C8.21378 3.60265 8.25 3.69008 8.25 3.78125C8.25 3.87242 8.21378 3.95985 8.14932 4.02432C8.08485 4.08878 7.99742 4.125 7.90625 4.125H3.09375C3.00258 4.125 2.91515 4.08878 2.85068 4.02432C2.78622 3.95985 2.75 3.87242 2.75 3.78125ZM2.75 5.5C2.75 5.40883 2.78622 5.3214 2.85068 5.25693C2.91515 5.19247 3.00258 5.15625 3.09375 5.15625H7.90625C7.99742 5.15625 8.08485 5.19247 8.14932 5.25693C8.21378 5.3214 8.25 5.40883 8.25 5.5C8.25 5.59117 8.21378 5.6786 8.14932 5.74307C8.08485 5.80753 7.99742 5.84375 7.90625 5.84375H3.09375C3.00258 5.84375 2.91515 5.80753 2.85068 5.74307C2.78622 5.6786 2.75 5.59117 2.75 5.5ZM2.75 7.21875C2.75 7.12758 2.78622 7.04015 2.85068 6.97568C2.91515 6.91122 3.00258 6.875 3.09375 6.875H5.84375C5.93492 6.875 6.02235 6.91122 6.08682 6.97568C6.15128 7.04015 6.1875 7.12758 6.1875 7.21875C6.1875 7.30992 6.15128 7.39735 6.08682 7.46182C6.02235 7.52628 5.93492 7.5625 5.84375 7.5625H3.09375C3.00258 7.5625 2.91515 7.52628 2.85068 7.46182C2.78622 7.39735 2.75 7.30992 2.75 7.21875Z" fill="black"/>
</svg>
