<svg width="14" height="12" viewBox="0 0 14 12" fill="none" xmlns="http://www.w3.org/2000/svg">
<path fill-rule="evenodd" clip-rule="evenodd" d="M12.6001 7.28634C13.3732 7.28634 14 6.63391 14 5.82905C14 5.0242 13.3732 4.37177 12.6001 4.37177L4.7797 4.37177L6.58969 2.48764C7.13637 1.91857 7.13637 0.995817 6.58969 0.426746C6.04287 -0.142325 5.15656 -0.142325 4.60975 0.426746L0.409907 4.79861C0.147417 5.07185 1.51299e-06 5.44258 1.47821e-06 5.82905C1.44344e-06 6.21553 0.147417 6.58626 0.409907 6.8595L4.60974 11.2314C5.15656 11.8005 6.04287 11.8005 6.58969 11.2314C7.13637 10.6623 7.13637 9.73957 6.58969 9.17045L4.7797 7.28634L12.6001 7.28634Z" fill="#333333"/>
</svg>
