<svg width="141" height="16" viewBox="0 0 141 16" fill="none" xmlns="http://www.w3.org/2000/svg">
<path d="M0.724475 11.3018V10.3036H2.70471L2.753 1.98023L0.531281 3.41308L0 2.68861L2.8013 0.499083L3.92826 0.692275V10.3036H5.8441V11.3018H0.724475Z" fill="black"/>
<path d="M10.976 11.3018L14.5823 0.193193L15.7898 0.0482977L19.4121 11.3018H18.1725L17.1904 8.16241H13.1817L12.2157 11.3018H10.976ZM15.2585 1.35235H15.1619C15.1512 1.64214 15.0975 1.94803 15.0009 2.27002L13.5037 7.11595H16.8684L15.4195 2.27002C15.3551 2.0339 15.3068 1.8246 15.2746 1.64214C15.2531 1.44895 15.2478 1.35235 15.2585 1.35235Z" fill="black"/>
<path d="M21.2368 4.84593C21.2368 4.33075 21.1724 3.94973 21.0436 3.70287L21.9613 3.54188C22.1437 3.58481 22.2564 3.69214 22.2994 3.86386C22.353 4.03559 22.3798 4.21269 22.3798 4.39515C22.3798 4.52394 22.3584 5.26451 22.3155 6.61687C22.2725 7.95849 22.2511 8.70443 22.2511 8.85469C22.2511 9.00495 22.2564 9.17668 22.2672 9.36987C22.2886 9.55233 22.3423 9.74552 22.4281 9.94945C22.5784 10.368 22.9433 10.5773 23.5229 10.5773C23.9522 10.5773 24.3171 10.4271 24.6177 10.1265C24.9289 9.81529 25.1543 9.40744 25.2938 8.90299C25.5622 7.99069 25.6963 6.99252 25.6963 5.90849V3.73507H26.775V8.13021C26.775 9.08545 26.8448 9.74552 26.9843 10.1104C27.1238 10.4646 27.4351 10.6417 27.9181 10.6417L27.9503 11.3662C27.7785 11.4091 27.5639 11.4306 27.3063 11.4306C26.7696 11.4306 26.394 11.275 26.1793 10.9637C25.9754 10.6417 25.8734 10.2714 25.8734 9.85285C25.8734 9.73479 25.8788 9.61136 25.8895 9.48257H25.7929C25.6212 10.1373 25.3046 10.6364 24.8431 10.9798C24.3923 11.3233 23.7966 11.495 23.056 11.495C22.3262 11.495 21.8164 11.2696 21.5266 10.8188C21.2368 10.368 21.0919 9.75089 21.0919 8.96739C21.0919 8.87079 21.1134 8.17851 21.1563 6.89056C21.21 5.6026 21.2368 4.92106 21.2368 4.84593Z" fill="black"/>
<path d="M33.5078 10.4968L33.6688 11.2052C33.2717 11.3984 32.7941 11.495 32.236 11.495C31.4417 11.495 30.9158 11.2803 30.6582 10.851C30.4006 10.4217 30.2718 9.74016 30.2718 8.80639V4.58834H28.9839V3.89606L30.2718 3.73507V2.06073L31.431 1.86753V3.73507H33.5078V4.58834H31.431V8.4522C31.431 9.45037 31.5169 10.0568 31.6886 10.2714C31.9033 10.5183 32.193 10.6417 32.558 10.6417C32.9229 10.6417 33.2395 10.5934 33.5078 10.4968Z" fill="black"/>
<path d="M38.1992 10.6417C38.7358 10.6417 39.1759 10.4754 39.5193 10.1426C39.8628 9.80992 40.0935 9.40744 40.2116 8.93519C40.3404 8.46294 40.4048 7.92092 40.4048 7.30914C40.4048 5.38794 39.7233 4.42734 38.3602 4.42734C37.8557 4.42734 37.4371 4.58834 37.1044 4.91033C36.5034 5.47917 36.2028 6.38611 36.2028 7.63113C36.2028 9.63819 36.8683 10.6417 38.1992 10.6417ZM41.6123 7.32524C41.6123 8.50587 41.3117 9.49867 40.7107 10.3036C40.1204 11.0979 39.2617 11.495 38.1348 11.495C37.0186 11.495 36.2243 11.173 35.7521 10.529C35.2798 9.87432 35.0437 8.91909 35.0437 7.66333C35.0437 6.40757 35.3174 5.40941 35.8648 4.66884C36.4121 3.91753 37.2386 3.54188 38.3441 3.54188C39.4496 3.54188 40.2706 3.87996 40.8073 4.55614C41.3439 5.22158 41.6123 6.14462 41.6123 7.32524Z" fill="black"/>
<path d="M47.7058 0.321988C48.661 0.193193 49.6431 0.128796 50.652 0.128796C51.6716 0.128796 52.4819 0.38102 53.083 0.885469C53.684 1.38992 53.9845 2.09829 53.9845 3.01059C53.9845 4.56687 53.1957 5.55967 51.6179 5.98899L53.2279 9.16058C53.4855 9.68649 53.7216 10.0568 53.9362 10.2714C54.1616 10.4754 54.43 10.5773 54.7412 10.5773L54.7895 11.3501C54.7466 11.393 54.5319 11.4145 54.1455 11.4145C53.7699 11.4145 53.4318 11.2803 53.1313 11.012C52.8308 10.733 52.5356 10.3036 52.2458 9.72406L50.4427 6.18218C50.2817 6.21438 50.0938 6.23048 49.8792 6.23048H48.881V11.3018H47.6575L47.7058 0.321988ZM48.881 5.21622H49.9114C51.7682 5.21622 52.6966 4.50247 52.6966 3.07499C52.6966 1.81924 51.956 1.19136 50.4749 1.19136C49.8738 1.19136 49.3425 1.22356 48.881 1.28795V5.21622Z" fill="black"/>
<path d="M60.3968 5.39331C60.3968 5.08206 60.3002 4.84593 60.107 4.68494C59.9138 4.52394 59.6562 4.44344 59.3342 4.44344C58.6902 4.44344 58.1858 4.71177 57.8209 5.24842C57.4559 5.77433 57.2467 6.41294 57.193 7.16425C59.3288 7.16425 60.3968 6.57394 60.3968 5.39331ZM59.0122 11.495C56.9944 11.495 55.9855 10.207 55.9855 7.63113C55.9855 6.45051 56.2807 5.47381 56.871 4.70103C57.472 3.92826 58.3146 3.54188 59.3986 3.54188C60.0641 3.54188 60.59 3.70287 60.9764 4.02486C61.3735 4.33611 61.572 4.7708 61.572 5.32891C61.572 5.87629 61.4379 6.32708 61.1695 6.68127C60.912 7.02472 60.5578 7.28768 60.107 7.47014C59.2591 7.81359 58.277 7.98532 57.1608 7.98532C57.1608 9.69186 57.8423 10.5451 59.2054 10.5451C59.8923 10.5451 60.5417 10.3573 61.1535 9.98165L61.3305 10.6095C61.0622 10.8779 60.708 11.0925 60.268 11.2535C59.8387 11.4145 59.4201 11.495 59.0122 11.495Z" fill="black"/>
<path d="M64.6409 4.05706C64.6409 4.6259 64.5979 5.10352 64.5121 5.48991H64.6087C64.7589 4.88886 65.0487 4.41661 65.478 4.07316C65.9181 3.71897 66.4494 3.54188 67.0719 3.54188C67.9198 3.54188 68.5047 3.75653 68.8267 4.18585C69.1487 4.60444 69.3097 5.23768 69.3097 6.08559C69.3097 6.11779 69.299 6.66517 69.2775 7.72773C69.2668 8.79029 69.2614 9.46647 69.2614 9.75626C69.2614 10.046 69.2936 10.2607 69.358 10.4002C69.4331 10.5398 69.6639 10.6095 70.0503 10.6095L70.0825 11.334C69.9322 11.3984 69.7122 11.4306 69.4224 11.4306C68.9072 11.4306 68.553 11.3125 68.3598 11.0764C68.1774 10.8403 68.0861 10.4646 68.0861 9.94945C68.0861 9.92798 68.0969 9.3484 68.1183 8.21071C68.1398 7.07302 68.1505 6.48271 68.1505 6.43977C68.1505 5.81726 68.07 5.33428 67.909 4.99082C67.7481 4.63664 67.4261 4.45954 66.9431 4.45954C66.4708 4.45954 66.0737 4.6098 65.7517 4.91033C65.4405 5.21085 65.2043 5.6026 65.0433 6.08559C64.7536 7.01935 64.6087 8.01215 64.6087 9.06398V11.3018H63.4978V3.73507L64.6409 3.59017V4.05706Z" fill="black"/>
<path d="M76.1346 5.39331C76.1346 5.08206 76.038 4.84593 75.8448 4.68494C75.6516 4.52394 75.394 4.44344 75.072 4.44344C74.4281 4.44344 73.9236 4.71177 73.5587 5.24842C73.1938 5.77433 72.9845 6.41294 72.9308 7.16425C75.0667 7.16425 76.1346 6.57394 76.1346 5.39331ZM74.75 11.495C72.7323 11.495 71.7234 10.207 71.7234 7.63113C71.7234 6.45051 72.0185 5.47381 72.6088 4.70103C73.2099 3.92826 74.0524 3.54188 75.1364 3.54188C75.8019 3.54188 76.3278 3.70287 76.7142 4.02486C77.1113 4.33611 77.3099 4.7708 77.3099 5.32891C77.3099 5.87629 77.1757 6.32708 76.9074 6.68127C76.6498 7.02472 76.2956 7.28768 75.8448 7.47014C74.9969 7.81359 74.0148 7.98532 72.8986 7.98532C72.8986 9.69186 73.5802 10.5451 74.9432 10.5451C75.6302 10.5451 76.2795 10.3573 76.8913 9.98165L77.0684 10.6095C76.8 10.8779 76.4459 11.0925 76.0058 11.2535C75.5765 11.4145 75.1579 11.495 74.75 11.495Z" fill="black"/>
<path d="M86.738 4.60444C86.738 4.23952 86.6897 3.9229 86.5931 3.65457L87.4946 3.54188C87.72 3.70287 87.8327 3.99803 87.8327 4.42734C87.8327 4.85666 87.822 5.18402 87.8005 5.40941C87.7147 6.10705 87.3927 7.03545 86.8346 8.19461L85.3856 11.3018H84.3713L83.502 8.19461C83.3947 7.82969 83.3625 7.46477 83.4054 7.09985H83.3088C83.2551 7.35744 83.1317 7.72236 82.9385 8.19461L81.6505 11.3018H80.6363L79.139 5.97289C78.8385 4.87813 78.5809 4.18585 78.3663 3.89606L78.2697 3.73507L79.1068 3.57407C79.2786 3.57407 79.4127 3.64921 79.5093 3.79947C79.6166 3.94973 79.7401 4.26098 79.8796 4.73323L81.3447 9.90115H81.4413C81.4305 9.84749 81.4251 9.75626 81.4251 9.62746C81.4251 9.49867 81.4895 9.28937 81.6183 8.99958L82.1657 7.72773C82.6165 6.6759 82.8419 5.6348 82.8419 4.60444C82.8419 4.27172 82.7936 3.97119 82.697 3.70287L83.5986 3.59017C83.824 3.77263 83.9367 4.07852 83.9367 4.50784C83.9367 4.92643 83.9152 5.31281 83.8723 5.667L85.0797 9.90115H85.1763C85.1656 9.84749 85.1602 9.75626 85.1602 9.62746C85.1602 9.49867 85.2246 9.28937 85.3534 8.99958L85.9008 7.72773C86.4589 6.42904 86.738 5.38794 86.738 4.60444Z" fill="black"/>
<path d="M91.4048 11.4306C90.9111 11.4306 90.5676 11.3125 90.3744 11.0764C90.1812 10.8403 90.0846 10.4539 90.0846 9.91725V3.73507H91.2438V9.25718C91.2438 9.82602 91.2867 10.1963 91.3726 10.368C91.4585 10.529 91.7053 10.6095 92.1132 10.6095L92.1454 11.3179C91.8985 11.393 91.6516 11.4306 91.4048 11.4306ZM89.9719 1.20746C89.9719 0.703009 90.2188 0.450784 90.7125 0.450784C91.1633 0.450784 91.3887 0.697642 91.3887 1.19136C91.3887 1.67434 91.1526 1.91583 90.6803 1.91583C90.2081 1.91583 89.9719 1.67971 89.9719 1.20746Z" fill="black"/>
<path d="M95.4405 4.05706C95.4405 4.6259 95.3975 5.10352 95.3117 5.48991H95.4083C95.5585 4.88886 95.8483 4.41661 96.2776 4.07316C96.7177 3.71897 97.249 3.54188 97.8715 3.54188C98.7194 3.54188 99.3043 3.75653 99.6263 4.18585C99.9483 4.60444 100.109 5.23768 100.109 6.08559C100.109 6.11779 100.099 6.66517 100.077 7.72773C100.066 8.79029 100.061 9.46647 100.061 9.75626C100.061 10.046 100.093 10.2607 100.158 10.4002C100.233 10.5398 100.463 10.6095 100.85 10.6095L100.882 11.334C100.732 11.3984 100.512 11.4306 100.222 11.4306C99.7068 11.4306 99.3526 11.3125 99.1594 11.0764C98.977 10.8403 98.8857 10.4646 98.8857 9.94945C98.8857 9.92798 98.8965 9.3484 98.9179 8.21071C98.9394 7.07302 98.9501 6.48271 98.9501 6.43977C98.9501 5.81726 98.8696 5.33428 98.7086 4.99082C98.5477 4.63664 98.2257 4.45954 97.7427 4.45954C97.2704 4.45954 96.8733 4.6098 96.5513 4.91033C96.2401 5.21085 96.0039 5.6026 95.8429 6.08559C95.5532 7.01935 95.4083 8.01215 95.4083 9.06398V11.3018H94.2974V3.73507L95.4405 3.59017V4.05706Z" fill="black"/>
<path d="M107.61 10.8188C107.61 10.3144 107.648 9.83675 107.723 9.38597H107.626C107.219 10.792 106.414 11.495 105.212 11.495C104.299 11.495 103.623 11.1676 103.183 10.5129C102.743 9.84749 102.523 8.92982 102.523 7.75993C102.523 6.59003 102.823 5.59724 103.425 4.78153C104.036 3.95509 104.933 3.54188 106.113 3.54188C106.553 3.54188 106.988 3.59017 107.417 3.68677C107.857 3.77263 108.287 3.9068 108.705 4.08926L108.721 10.8188C108.721 12.1819 108.469 13.2445 107.965 14.0065C107.471 14.7793 106.634 15.1657 105.453 15.1657C105.024 15.1657 104.584 15.0852 104.133 14.9242C103.682 14.7739 103.323 14.5593 103.054 14.2802L103.231 13.6523C103.854 14.0602 104.578 14.2641 105.405 14.2641C106.242 14.2641 106.816 13.9689 107.127 13.3786C107.449 12.799 107.61 11.9458 107.61 10.8188ZM105.324 10.6095C106.859 10.6095 107.626 8.63466 107.626 4.68494C107.283 4.49174 106.779 4.39515 106.113 4.39515C104.525 4.39515 103.73 5.59187 103.73 7.98532C103.73 8.72589 103.854 9.3484 104.101 9.85285C104.348 10.3573 104.755 10.6095 105.324 10.6095Z" fill="black"/>
<path d="M116.581 8.82249C116.581 9.39134 116.549 9.86895 116.485 10.2553H120.687L120.638 11.3018H115.325L115.374 0.193193L116.581 0V8.82249Z" fill="black"/>
<path d="M124.295 11.4306C123.802 11.4306 123.458 11.3125 123.265 11.0764C123.072 10.8403 122.975 10.4539 122.975 9.91725V3.73507H124.134V9.25718C124.134 9.82602 124.177 10.1963 124.263 10.368C124.349 10.529 124.596 10.6095 125.004 10.6095L125.036 11.3179C124.789 11.393 124.542 11.4306 124.295 11.4306ZM122.863 1.20746C122.863 0.703009 123.109 0.450784 123.603 0.450784C124.054 0.450784 124.279 0.697642 124.279 1.19136C124.279 1.67434 124.043 1.91583 123.571 1.91583C123.099 1.91583 122.863 1.67971 122.863 1.20746Z" fill="black"/>
<path d="M128.331 4.05706C128.331 4.6259 128.288 5.10352 128.202 5.48991H128.299C128.449 4.88886 128.739 4.41661 129.168 4.07316C129.608 3.71897 130.14 3.54188 130.762 3.54188C131.61 3.54188 132.195 3.75653 132.517 4.18585C132.839 4.60444 133 5.23768 133 6.08559C133 6.11779 132.989 6.66517 132.968 7.72773C132.957 8.79029 132.952 9.46647 132.952 9.75626C132.952 10.046 132.984 10.2607 133.048 10.4002C133.123 10.5398 133.354 10.6095 133.741 10.6095L133.773 11.334C133.622 11.3984 133.402 11.4306 133.113 11.4306C132.597 11.4306 132.243 11.3125 132.05 11.0764C131.868 10.8403 131.776 10.4646 131.776 9.94945C131.776 9.92798 131.787 9.3484 131.809 8.21071C131.83 7.07302 131.841 6.48271 131.841 6.43977C131.841 5.81726 131.76 5.33428 131.599 4.99082C131.438 4.63664 131.116 4.45954 130.633 4.45954C130.161 4.45954 129.764 4.6098 129.442 4.91033C129.131 5.21085 128.895 5.6026 128.734 6.08559C128.444 7.01935 128.299 8.01215 128.299 9.06398V11.3018H127.188V3.73507L128.331 3.59017V4.05706Z" fill="black"/>
<path d="M139.825 5.39331C139.825 5.08206 139.728 4.84593 139.535 4.68494C139.342 4.52394 139.084 4.44344 138.762 4.44344C138.118 4.44344 137.614 4.71177 137.249 5.24842C136.884 5.77433 136.675 6.41294 136.621 7.16425C138.757 7.16425 139.825 6.57394 139.825 5.39331ZM138.44 11.495C136.422 11.495 135.414 10.207 135.414 7.63113C135.414 6.45051 135.709 5.47381 136.299 4.70103C136.9 3.92826 137.743 3.54188 138.827 3.54188C139.492 3.54188 140.018 3.70287 140.404 4.02486C140.802 4.33611 141 4.7708 141 5.32891C141 5.87629 140.866 6.32708 140.598 6.68127C140.34 7.02472 139.986 7.28768 139.535 7.47014C138.687 7.81359 137.705 7.98532 136.589 7.98532C136.589 9.69186 137.27 10.5451 138.633 10.5451C139.32 10.5451 139.97 10.3573 140.582 9.98165L140.759 10.6095C140.49 10.8779 140.136 11.0925 139.696 11.2535C139.267 11.4145 138.848 11.495 138.44 11.495Z" fill="black"/>
</svg>
