<svg width="29" height="29" viewBox="0 0 29 29" fill="none" xmlns="http://www.w3.org/2000/svg">
<path d="M14.5002 2.41675C11.1688 2.41675 8.4585 5.12704 8.4585 8.45842V12.0834H7.25016C6.60922 12.0834 5.99453 12.338 5.54132 12.7912C5.08811 13.2445 4.8335 13.8591 4.8335 14.5001V24.1668C4.8335 24.8077 5.08811 25.4224 5.54132 25.8756C5.99453 26.3288 6.60922 26.5834 7.25016 26.5834H21.7502C22.3911 26.5834 23.0058 26.3288 23.459 25.8756C23.9122 25.4224 24.1668 24.8077 24.1668 24.1668V14.5001C24.1668 13.8591 23.9122 13.2445 23.459 12.7912C23.0058 12.338 22.3911 12.0834 21.7502 12.0834H20.5418V8.45842C20.5418 5.12704 17.8315 2.41675 14.5002 2.41675ZM10.8752 8.45842C10.8752 6.45983 12.5016 4.83342 14.5002 4.83342C16.4987 4.83342 18.1252 6.45983 18.1252 8.45842V12.0834H10.8752V8.45842ZM15.7085 21.4154V24.1668H13.2918V21.4154C12.8694 21.1735 12.5302 20.8092 12.3189 20.3706C12.1077 19.932 12.0343 19.4397 12.1085 18.9586C12.1827 18.4774 12.4009 18.0301 12.7345 17.6755C13.0681 17.3209 13.5013 17.0758 13.977 16.9723C14.3303 16.8942 14.6967 16.8964 15.049 16.9787C15.4014 17.061 15.7308 17.2214 16.013 17.448C16.2951 17.6746 16.5228 17.9617 16.6792 18.288C16.8357 18.6143 16.9169 18.9715 16.9168 19.3334C16.9161 19.756 16.8041 20.171 16.5919 20.5365C16.3798 20.902 16.0751 21.2051 15.7085 21.4154V21.4154Z" fill="#CCCED3"/>
</svg>
