<svg width="19" height="19" viewBox="0 0 19 19" fill="none" xmlns="http://www.w3.org/2000/svg">
<path d="M15.4373 17.2188H15.3364C3.66917 16.5478 2.01261 6.70344 1.78105 3.69906C1.76239 3.46547 1.79 3.23049 1.86232 3.00759C1.93463 2.78469 2.05021 2.57824 2.20244 2.40009C2.35467 2.22193 2.54056 2.07556 2.74946 1.96937C2.95835 1.86318 3.18615 1.79925 3.4198 1.78125H6.69136C6.92919 1.78102 7.16161 1.85221 7.35851 1.9856C7.55542 2.11898 7.70774 2.30842 7.79573 2.52938L8.69823 4.75C8.78513 4.96586 8.80669 5.20248 8.76025 5.43049C8.7138 5.6585 8.60139 5.86784 8.43698 6.0325L7.1723 7.30906C7.36985 8.4317 7.90747 9.46655 8.71242 10.2736C9.51738 11.0807 10.5508 11.6211 11.6729 11.8216L12.9614 10.545C13.1285 10.3824 13.3398 10.2726 13.5689 10.2293C13.7981 10.186 14.0349 10.2112 14.2498 10.3016L16.4882 11.1981C16.7059 11.2889 16.8915 11.4424 17.0216 11.6391C17.1516 11.8358 17.2202 12.0667 17.2185 12.3025V15.4375C17.2185 15.9099 17.0309 16.363 16.6968 16.697C16.3628 17.0311 15.9097 17.2188 15.4373 17.2188ZM3.5623 2.96875C3.40482 2.96875 3.2538 3.03131 3.14245 3.14266C3.0311 3.25401 2.96855 3.40503 2.96855 3.5625V3.61C3.24167 7.125 4.99323 15.4375 15.4017 16.0313C15.4797 16.0361 15.5579 16.0254 15.6317 16C15.7056 15.9745 15.7738 15.9347 15.8322 15.8829C15.8907 15.831 15.9384 15.7681 15.9725 15.6978C16.0066 15.6275 16.0265 15.5511 16.031 15.4731V12.3025L13.7926 11.4059L12.0885 13.0981L11.8035 13.0625C6.63792 12.4153 5.9373 7.24969 5.9373 7.19625L5.90167 6.91125L7.58792 5.20719L6.6973 2.96875H3.5623Z" fill="#243443"/>
</svg>
