<svg width="13" height="13" viewBox="0 0 13 13" fill="none" xmlns="http://www.w3.org/2000/svg">
<path d="M2.20291 4.62345L2.91856 11.7136C2.95821 12.0133 4.40511 12.9987 6.50006 13C8.59631 12.9987 10.0432 12.0133 10.0822 11.7136L10.7985 4.62345C9.70391 5.23575 8.06786 5.525 6.50006 5.525C4.93356 5.525 3.29686 5.23575 2.20291 4.62345V4.62345ZM8.55926 0.9815L8.00091 0.36335C7.78511 0.0559 7.55111 0 7.09546 0H5.90531C5.45031 0 5.21566 0.0559 5.00051 0.36335L4.44216 0.9815C2.77166 1.27335 1.56006 2.0475 1.56006 2.61885V2.72935C1.56006 3.7349 3.77201 4.55 6.50006 4.55C9.22876 4.55 11.4407 3.7349 11.4407 2.72935V2.61885C11.4407 2.0475 10.2298 1.27335 8.55926 0.9815V0.9815ZM7.84556 2.821L7.15006 1.95H5.85006L5.15586 2.821H4.05086C4.05086 2.821 5.26116 1.37735 5.42301 1.1817C5.54651 1.0322 5.67261 0.975 5.83641 0.975H7.16436C7.32881 0.975 7.45491 1.0322 7.57841 1.1817C7.73961 1.37735 8.95056 2.821 8.95056 2.821H7.84556Z" fill="black"/>
</svg>
