<svg width="14" height="12" viewBox="0 0 14 12" fill="none" xmlns="http://www.w3.org/2000/svg">
<path fill-rule="evenodd" clip-rule="evenodd" d="M12.6001 7.49999C13.3732 7.49999 14 6.82843 14 5.99998C14 5.17153 13.3732 4.49998 12.6001 4.49998L4.7797 4.49998L6.58969 2.56062C7.13637 1.97487 7.13637 1.02507 6.58969 0.439313C6.04287 -0.146439 5.15656 -0.146439 4.60975 0.439313L0.409907 4.93933C0.147417 5.22058 1.51299e-06 5.60218 1.47821e-06 5.99998C1.44344e-06 6.39778 0.147417 6.77938 0.409907 7.06063L4.60974 11.5607C5.15656 12.1464 6.04287 12.1464 6.58969 11.5607C7.13637 10.9749 7.13637 10.0251 6.58969 9.43933L4.7797 7.49998L12.6001 7.49999Z" fill="#333333"/>
</svg>
