<svg width="11" height="11" viewBox="0 0 11 11" fill="none" xmlns="http://www.w3.org/2000/svg">
<path d="M8.29056 8.53873C7.70064 9.08063 6.96571 9.43905 6.17548 9.57022C5.38526 9.7014 4.57394 9.59965 3.84058 9.27741C3.10722 8.95516 2.48355 8.42636 2.04571 7.75557C1.60788 7.08478 1.37482 6.30102 1.375 5.49998H2.0625C2.06245 6.19236 2.27149 6.86862 2.66224 7.4402C3.05298 8.01178 3.60723 8.45204 4.2524 8.70334C4.89757 8.95463 5.60358 9.00523 6.278 8.84853C6.95241 8.69183 7.56378 8.33511 8.03206 7.82511H7.03312C6.94196 7.82511 6.85452 7.78889 6.79006 7.72443C6.72559 7.65996 6.68937 7.57253 6.68937 7.48136C6.68937 7.39019 6.72559 7.30276 6.79006 7.23829C6.85452 7.17382 6.94196 7.13761 7.03312 7.13761H8.63431C8.72548 7.13761 8.81291 7.17382 8.87738 7.23829C8.94184 7.30276 8.97806 7.39019 8.97806 7.48136V9.08117C8.97806 9.17234 8.94184 9.25977 8.87738 9.32424C8.81291 9.3887 8.72548 9.42492 8.63431 9.42492C8.54314 9.42492 8.45571 9.3887 8.39124 9.32424C8.32678 9.25977 8.29056 9.17234 8.29056 9.08117V8.53804V8.53873ZM2.96794 3.17555H3.96687C4.05804 3.17555 4.14548 3.21176 4.20994 3.27623C4.27441 3.34069 4.31062 3.42813 4.31062 3.5193C4.31062 3.61046 4.27441 3.6979 4.20994 3.76236C4.14548 3.82683 4.05804 3.86305 3.96687 3.86305H2.365C2.27383 3.86305 2.1864 3.82683 2.12193 3.76236C2.05747 3.6979 2.02125 3.61046 2.02125 3.5193V1.91811C2.02125 1.82694 2.05747 1.73951 2.12193 1.67504C2.1864 1.61058 2.27383 1.57436 2.365 1.57436C2.45617 1.57436 2.5436 1.61058 2.60807 1.67504C2.67253 1.73951 2.70875 1.82694 2.70875 1.91811V2.46123C3.29859 1.91866 4.03372 1.55966 4.82428 1.42811C5.61485 1.29656 6.42662 1.39816 7.16038 1.72048C7.89414 2.04281 8.51812 2.5719 8.95606 3.2431C9.39399 3.91431 9.62692 4.69855 9.62637 5.49998H8.93887C8.93893 4.80751 8.72986 4.13117 8.33902 3.55953C7.94819 2.9879 7.39382 2.54763 6.74853 2.2964C6.10324 2.04516 5.39712 1.99467 4.72265 2.15155C4.04818 2.30842 3.43681 2.66533 2.96862 3.17555H2.96794Z" fill="black"/>
</svg>
