<svg width="17" height="17" viewBox="0 0 17 17" fill="none" xmlns="http://www.w3.org/2000/svg">
<path d="M8.5 2.125C12.0062 2.125 14.875 4.99375 14.875 8.5C14.875 12.0062 12.0062 14.875 8.5 14.875C4.99375 14.875 2.125 12.0062 2.125 8.5C2.125 4.99375 4.99375 2.125 8.5 2.125ZM8.5 1.0625C4.40938 1.0625 1.0625 4.40938 1.0625 8.5C1.0625 12.5906 4.40938 15.9375 8.5 15.9375C12.5906 15.9375 15.9375 12.5906 15.9375 8.5C15.9375 4.40938 12.5906 1.0625 8.5 1.0625Z" fill="black"/>
<path d="M12.75 7.96875H9.03125V4.25H7.96875V7.96875H4.25V9.03125H7.96875V12.75H9.03125V9.03125H12.75V7.96875Z" fill="black"/>
</svg>
