<svg width="37" height="37" viewBox="0 0 37 37" fill="none" xmlns="http://www.w3.org/2000/svg">
<path d="M6.27008 13.1591L8.30693 33.3389C8.41978 34.1917 12.5379 36.9963 18.5004 37C24.4667 36.9963 28.5848 34.1917 28.6958 33.3389L30.7345 13.1591C27.6191 14.9017 22.9626 15.725 18.5004 15.725C14.0419 15.725 9.38363 14.9017 6.27008 13.1591V13.1591ZM24.3612 2.7935L22.7721 1.03415C22.1579 0.1591 21.4919 0 20.195 0H16.8077C15.5127 0 14.8448 0.1591 14.2325 1.03415L12.6433 2.7935C7.88883 3.62415 4.44043 5.8275 4.44043 7.45365V7.76815C4.44043 10.6301 10.736 12.95 18.5004 12.95C26.2667 12.95 32.5623 10.6301 32.5623 7.76815V7.45365C32.5623 5.8275 29.1157 3.62415 24.3612 2.7935V2.7935ZM22.3299 8.029L20.3504 5.55H16.6504L14.6746 8.029H11.5296C11.5296 8.029 14.9743 3.92015 15.435 3.3633C15.7865 2.9378 16.1454 2.775 16.6116 2.775H20.3911C20.8592 2.775 21.2181 2.9378 21.5696 3.3633C22.0284 3.92015 25.4749 8.029 25.4749 8.029H22.3299Z" fill="black"/>
</svg>
