<svg width="70" height="70" viewBox="0 0 70 70" fill="none" xmlns="http://www.w3.org/2000/svg">
<path d="M34.9998 5.83337C26.9586 5.83337 20.4165 12.3755 20.4165 20.4167V29.1667H17.4998C15.9527 29.1667 14.469 29.7813 13.375 30.8753C12.2811 31.9692 11.6665 33.4529 11.6665 35V58.3334C11.6665 59.8805 12.2811 61.3642 13.375 62.4582C14.469 63.5521 15.9527 64.1667 17.4998 64.1667H52.4998C54.0469 64.1667 55.5307 63.5521 56.6246 62.4582C57.7186 61.3642 58.3332 59.8805 58.3332 58.3334V35C58.3332 33.4529 57.7186 31.9692 56.6246 30.8753C55.5307 29.7813 54.0469 29.1667 52.4998 29.1667H49.5832V20.4167C49.5832 12.3755 43.0411 5.83337 34.9998 5.83337ZM26.2498 20.4167C26.2498 15.5925 30.1757 11.6667 34.9998 11.6667C39.824 11.6667 43.7498 15.5925 43.7498 20.4167V29.1667H26.2498V20.4167ZM37.9165 51.6921V58.3334H32.0832V51.6921C31.0635 51.1082 30.2447 50.2289 29.7348 49.1702C29.2248 48.1116 29.0478 46.9232 29.2268 45.7619C29.4059 44.6005 29.9328 43.5207 30.7379 42.6648C31.543 41.809 32.5887 41.2172 33.7369 40.9675C34.5898 40.779 35.4741 40.7842 36.3247 40.983C37.1753 41.1817 37.9704 41.5688 38.6515 42.1158C39.3325 42.6627 39.8821 43.3556 40.2597 44.1432C40.6373 44.9309 40.8333 45.7932 40.8332 46.6667C40.8315 47.6868 40.561 48.6884 40.049 49.5707C39.5369 50.4529 38.8014 51.1847 37.9165 51.6921V51.6921Z" fill="#CCCED3"/>
</svg>
