<svg width="30" height="18" viewBox="0 0 30 18" fill="none" xmlns="http://www.w3.org/2000/svg">
<path d="M21.0005 4.37183C18.5584 4.37183 16.5004 6.37123 16.5004 8.74369C16.5004 11.1162 18.5584 13.1156 21.0005 13.1156C23.4425 13.1156 25.5005 11.1162 25.5005 8.74369C25.5005 6.37123 23.4425 4.37183 21.0005 4.37183Z" fill="#898A8D"/>
<path d="M21.0001 0H9.00005C4.05602 0 0.0270001 3.90844 0 8.72332V8.78453C0.0150356 11.0952 0.96941 13.3066 2.65519 14.9367C4.34097 16.5668 6.62155 17.4836 9.00005 17.4874H21.0001C25.9636 17.4874 30.0002 13.5659 30.0002 8.74372C30.0002 3.92156 25.9636 0 21.0001 0ZM21.0001 14.5729H9.00005C7.41206 14.5706 5.88957 13.9577 4.76529 12.8682C3.64101 11.7786 3.00636 10.301 3.00002 8.7583C3.00602 5.53623 5.69703 2.91457 9.00005 2.91457H21.0001C24.3091 2.91457 27.0001 5.52895 27.0001 8.74372C27.0001 11.9585 24.3091 14.5729 21.0001 14.5729Z" fill="#898A8D"/>
</svg>
