<svg width="13" height="12" viewBox="0 0 13 12" fill="none" xmlns="http://www.w3.org/2000/svg">
<path fill-rule="evenodd" clip-rule="evenodd" d="M11.0879 7.49999C11.7683 7.49999 12.3198 6.82843 12.3198 5.99998C12.3198 5.17153 11.7683 4.49998 11.0879 4.49998L4.20596 4.49998L5.79875 2.56062C6.27983 1.97487 6.27983 1.02507 5.79875 0.439314C5.31755 -0.146438 4.5376 -0.146438 4.0564 0.439314L0.360542 4.93933C0.129551 5.22058 -0.000174383 5.60218 -0.000174414 5.99998C-0.000174444 6.39778 0.129551 6.77938 0.360542 7.06063L4.0564 11.5607C4.5376 12.1464 5.31755 12.1464 5.79875 11.5607C6.27983 10.9749 6.27983 10.0251 5.79875 9.43933L4.20596 7.49998L11.0879 7.49999Z" fill="#333333"/>
</svg>
