<svg width="20" height="22" viewBox="0 0 20 22" fill="none" xmlns="http://www.w3.org/2000/svg">
<path d="M19.1905 17.4H18.5833V8.9C18.5833 5.3725 15.9448 2.455 12.5119 1.97V1C12.5119 0.4475 12.0591 0 11.5 0C10.9409 0 10.4881 0.4475 10.4881 1V1.97C7.05521 2.455 4.41667 5.3725 4.41667 8.9V17.4H3.80952C3.36176 17.4 3 17.7575 3 18.2V19C3 19.11 3.09107 19.2 3.20238 19.2H8.66667C8.66667 20.745 9.93661 22 11.5 22C13.0634 22 14.3333 20.745 14.3333 19.2H19.7976C19.9089 19.2 20 19.11 20 19V18.2C20 17.7575 19.6382 17.4 19.1905 17.4ZM11.5 20.4C10.8296 20.4 10.2857 19.8625 10.2857 19.2H12.7143C12.7143 19.8625 12.1704 20.4 11.5 20.4Z" fill="black"/>
<circle cx="4" cy="5" r="4" fill="#EB001B"/>
</svg>
