<svg width="43" height="43" viewBox="0 0 43 43" fill="none" xmlns="http://www.w3.org/2000/svg">
<path d="M4.03125 21.5C4.03125 11.8678 11.8687 4.03125 21.5 4.03125C31.1464 4.03125 38.9688 11.8536 38.9688 21.5C38.9688 31.1322 31.1322 38.9688 21.5 38.9688C11.8527 38.9688 4.03125 31.1473 4.03125 21.5ZM22.4238 29.3945C23.9852 29.3945 25.5115 28.9315 26.8098 28.0641C28.108 27.1966 29.1199 25.9636 29.7174 24.5211C30.3149 23.0786 30.4713 21.4912 30.1667 19.9599C29.8621 18.4285 29.1102 17.0218 28.0061 15.9177C26.902 14.8137 25.4954 14.0618 23.964 13.7572C22.4326 13.4525 20.8453 13.6089 19.4027 14.2064C17.9602 14.8039 16.7272 15.8158 15.8598 17.114C14.9923 18.4123 14.5293 19.9386 14.5293 21.5V21.8536L12.5137 19.8379L10.8508 21.5L15.873 26.5223L20.8953 21.5L19.2324 19.8371L16.8876 22.182C16.8809 21.9804 16.8809 21.752 16.8809 21.5C16.8809 20.4037 17.2059 19.332 17.815 18.4205C18.4241 17.509 19.2898 16.7985 20.3026 16.379C21.3155 15.9594 22.43 15.8497 23.5052 16.0635C24.5804 16.2774 25.5681 16.8053 26.3433 17.5805C27.1185 18.3557 27.6464 19.3434 27.8603 20.4186C28.0742 21.4939 27.9644 22.6084 27.5449 23.6212C27.1253 24.634 26.4149 25.4997 25.5033 26.1088C24.5918 26.7179 23.5201 27.043 22.4238 27.043H21.248V29.3945H22.4238Z" fill="#CCCED3"/>
</svg>
