<svg width="22" height="22" viewBox="0 0 22 22" fill="none" xmlns="http://www.w3.org/2000/svg">
<path d="M19.9653 2.03499C20.094 2.16389 20.1663 2.33863 20.1663 2.52082C20.1663 2.70301 20.094 2.87775 19.9653 3.00665L17.0136 5.95832L19.9653 8.90999C20.0328 8.97293 20.087 9.04883 20.1246 9.13316C20.1621 9.21749 20.1823 9.30853 20.184 9.40084C20.1856 9.49315 20.1686 9.58485 20.134 9.67045C20.0995 9.75606 20.048 9.83382 19.9827 9.89911C19.9174 9.96439 19.8397 10.0159 19.7541 10.0504C19.6685 10.085 19.5768 10.102 19.4845 10.1004C19.3921 10.0987 19.3011 10.0785 19.2168 10.041C19.1324 10.0034 19.0565 9.9492 18.9936 9.88165L16.0419 6.92999L13.0903 9.88165C13.0273 9.9492 12.9514 10.0034 12.8671 10.041C12.7828 10.0785 12.6917 10.0987 12.5994 10.1004C12.5071 10.102 12.4154 10.085 12.3298 10.0504C12.2442 10.0159 12.1664 9.96439 12.1011 9.89911C12.0359 9.83382 11.9844 9.75606 11.9498 9.67045C11.9152 9.58485 11.8983 9.49315 11.8999 9.40084C11.9015 9.30853 11.9217 9.21749 11.9593 9.13316C11.9969 9.04883 12.0511 8.97293 12.1186 8.90999L15.0703 5.95832L12.1186 3.00665C11.9972 2.87633 11.931 2.70395 11.9342 2.52584C11.9373 2.34773 12.0095 2.1778 12.1354 2.05184C12.2614 1.92587 12.4313 1.85372 12.6095 1.85058C12.7876 1.84744 12.9599 1.91355 13.0903 2.03499L16.0419 4.98665L18.9936 2.03499C19.1225 1.90624 19.2972 1.83393 19.4794 1.83393C19.6616 1.83393 19.8364 1.90624 19.9653 2.03499V2.03499ZM8.58668 3.03599L9.37501 4.89499C9.71785 5.7044 9.5281 6.65682 8.90385 7.24899L7.16768 8.89715C7.27401 9.88349 7.60585 10.8542 8.16135 11.8094C8.68915 12.7336 9.39704 13.5425 10.2431 14.1882L12.3285 13.4915C13.1196 13.2284 13.9803 13.5318 14.4643 14.2441L15.5946 15.9032C16.1583 16.7319 16.0575 17.8741 15.3581 18.5762L14.6083 19.3288C13.8621 20.0777 12.796 20.35 11.8106 20.042C9.48318 19.316 7.34368 17.1609 5.39118 13.5767C3.43593 9.98707 2.74568 6.94007 3.32135 4.4394C3.56335 3.38707 4.31226 2.54832 5.29126 2.23574L6.2776 1.92041C7.20343 1.62524 8.19068 2.10282 8.5876 3.03599H8.58668Z" fill="black"/>
</svg>
