<svg width="48" height="48" viewBox="0 0 48 48" fill="none" xmlns="http://www.w3.org/2000/svg">
<path d="M43.4266 20.96L38.96 19.6266C38.6511 18.5484 38.2264 17.5067 37.6933 16.52L39.88 12.4266C39.962 12.2721 39.9921 12.0953 39.9656 11.9223C39.9392 11.7494 39.8577 11.5896 39.7333 11.4666L36.5466 8.26663C36.4237 8.14219 36.2639 8.06071 36.0909 8.03429C35.918 8.00787 35.7411 8.03791 35.5866 8.11996L31.52 10.2933C30.5235 9.73417 29.4681 9.28701 28.3733 8.95996L27.04 4.54663C26.9836 4.38398 26.877 4.24343 26.7357 4.14519C26.5943 4.04695 26.4254 3.9961 26.2533 3.99996H21.7466C21.5735 4.00077 21.4051 4.05681 21.266 4.15992C21.1269 4.26304 21.0244 4.40786 20.9733 4.57329L19.64 8.97329C18.536 9.2986 17.4716 9.7458 16.4666 10.3066L12.4666 8.14663C12.3121 8.06458 12.1353 8.03453 11.9623 8.06095C11.7894 8.08737 11.6296 8.16885 11.5066 8.29329L8.26663 11.4533C8.14219 11.5763 8.06071 11.7361 8.03429 11.909C8.00787 12.0819 8.03791 12.2588 8.11996 12.4133L10.28 16.4133C9.72004 17.4141 9.27286 18.4739 8.94663 19.5733L4.53329 20.9066C4.36786 20.9577 4.22304 21.0603 4.11993 21.1994C4.01681 21.3385 3.96077 21.5068 3.95996 21.68V26.1866C3.96077 26.3598 4.01681 26.5281 4.11993 26.6672C4.22304 26.8063 4.36786 26.9089 4.53329 26.96L8.97329 28.2933C9.30309 29.3744 9.7502 30.4161 10.3066 31.4L8.11996 35.5866C8.03791 35.7411 8.00787 35.918 8.03429 36.0909C8.06071 36.2639 8.14219 36.4237 8.26663 36.5466L11.4533 39.7333C11.5763 39.8577 11.7361 39.9392 11.909 39.9656C12.0819 39.9921 12.2588 39.962 12.4133 39.88L16.5333 37.68C17.5079 38.2059 18.536 38.626 19.6 38.9333L20.9333 43.4266C20.9844 43.5921 21.0869 43.7369 21.226 43.84C21.3651 43.9431 21.5335 43.9992 21.7066 44H26.2133C26.3864 43.9992 26.5548 43.9431 26.6939 43.84C26.833 43.7369 26.9355 43.5921 26.9866 43.4266L28.32 38.92C29.3749 38.6111 30.3939 38.191 31.36 37.6666L35.5066 39.88C35.6611 39.962 35.838 39.9921 36.0109 39.9656C36.1839 39.9392 36.3437 39.8577 36.4666 39.7333L39.6533 36.5466C39.7777 36.4237 39.8592 36.2639 39.8856 36.0909C39.9121 35.918 39.882 35.7411 39.8 35.5866L37.5866 31.4533C38.1164 30.4836 38.5411 29.46 38.8533 28.4L43.3466 27.0666C43.5121 27.0155 43.6569 26.913 43.76 26.7739C43.8631 26.6348 43.9192 26.4664 43.92 26.2933V21.7466C43.9278 21.5808 43.8848 21.4166 43.7966 21.276C43.7084 21.1354 43.5793 21.0251 43.4266 20.96V20.96ZM24 31.3333C22.5496 31.3333 21.1317 30.9032 19.9258 30.0974C18.7198 29.2916 17.7799 28.1463 17.2248 26.8063C16.6698 25.4663 16.5246 23.9918 16.8075 22.5693C17.0905 21.1468 17.7889 19.8401 18.8145 18.8145C19.8401 17.7889 21.1468 17.0905 22.5693 16.8075C23.9918 16.5246 25.4663 16.6698 26.8063 17.2248C28.1463 17.7799 29.2916 18.7198 30.0974 19.9258C30.9032 21.1317 31.3333 22.5496 31.3333 24C31.3333 25.9449 30.5607 27.8101 29.1854 29.1854C27.8101 30.5607 25.9449 31.3333 24 31.3333V31.3333Z" fill="black"/>
</svg>
