<svg width="11" height="11" viewBox="0 0 11 11" fill="none" xmlns="http://www.w3.org/2000/svg">
<path d="M8.29056 8.53876C7.70064 9.08066 6.96571 9.43908 6.17548 9.57025C5.38526 9.70143 4.57394 9.59968 3.84058 9.27744C3.10722 8.95519 2.48355 8.42639 2.04571 7.7556C1.60788 7.08481 1.37482 6.30105 1.375 5.50001H2.0625C2.06245 6.19239 2.27149 6.86865 2.66224 7.44023C3.05298 8.01181 3.60723 8.45208 4.2524 8.70337C4.89757 8.95466 5.60358 9.00526 6.278 8.84856C6.95241 8.69186 7.56378 8.33515 8.03206 7.82514H7.03312C6.94196 7.82514 6.85452 7.78892 6.79006 7.72446C6.72559 7.65999 6.68937 7.57256 6.68937 7.48139C6.68937 7.39022 6.72559 7.30279 6.79006 7.23832C6.85452 7.17385 6.94196 7.13764 7.03312 7.13764H8.63431C8.72548 7.13764 8.81291 7.17385 8.87738 7.23832C8.94184 7.30279 8.97806 7.39022 8.97806 7.48139V9.0812C8.97806 9.17237 8.94184 9.2598 8.87738 9.32427C8.81291 9.38873 8.72548 9.42495 8.63431 9.42495C8.54314 9.42495 8.45571 9.38873 8.39124 9.32427C8.32678 9.2598 8.29056 9.17237 8.29056 9.0812V8.53808V8.53876ZM2.96794 3.17558H3.96687C4.05804 3.17558 4.14548 3.21179 4.20994 3.27626C4.27441 3.34073 4.31062 3.42816 4.31062 3.51933C4.31062 3.6105 4.27441 3.69793 4.20994 3.7624C4.14548 3.82686 4.05804 3.86308 3.96687 3.86308H2.365C2.27383 3.86308 2.1864 3.82686 2.12193 3.7624C2.05747 3.69793 2.02125 3.6105 2.02125 3.51933V1.91814C2.02125 1.82697 2.05747 1.73954 2.12193 1.67507C2.1864 1.61061 2.27383 1.57439 2.365 1.57439C2.45617 1.57439 2.5436 1.61061 2.60807 1.67507C2.67253 1.73954 2.70875 1.82697 2.70875 1.91814V2.46127C3.29859 1.91869 4.03372 1.55969 4.82428 1.42814C5.61485 1.29659 6.42662 1.39819 7.16038 1.72051C7.89414 2.04284 8.51812 2.57193 8.95606 3.24313C9.39399 3.91434 9.62692 4.69858 9.62637 5.50001H8.93887C8.93893 4.80754 8.72986 4.1312 8.33902 3.55956C7.94819 2.98793 7.39382 2.54766 6.74853 2.29643C6.10324 2.04519 5.39712 1.9947 4.72265 2.15158C4.04818 2.30845 3.43681 2.66536 2.96862 3.17558H2.96794Z" fill="black"/>
</svg>
