<svg width="29" height="29" viewBox="0 0 29 29" fill="none" xmlns="http://www.w3.org/2000/svg">
<path fill-rule="evenodd" clip-rule="evenodd" d="M14.0205 0.127532C14.1666 0.0441183 14.3318 0.000244141 14.5 0.000244141C14.6682 0.000244141 14.8334 0.0441183 14.9795 0.127532L28.5128 7.86087C28.6608 7.94538 28.7837 8.0675 28.8693 8.21485C28.9549 8.3622 28.9999 8.52954 29 8.69993V10.0919C29 18.8538 23.1903 26.5562 14.7649 28.9613C14.5917 29.0106 14.4083 29.0106 14.2351 28.9613C10.1345 27.7896 6.52706 25.3143 3.95864 21.9097C1.39021 18.5052 0.000580667 14.3567 0 10.0919L0 8.69993C5.49589e-05 8.52954 0.0451458 8.3622 0.130704 8.21485C0.216262 8.0675 0.339248 7.94538 0.4872 7.86087L14.0205 0.127532V0.127532ZM13.6725 20.7079L22.0207 10.2698L20.5127 9.0634L13.3941 17.9587L8.352 13.7575L7.11467 15.2423L13.6725 20.7079V20.7079Z" fill="black"/>
</svg>
