<svg width="37" height="37" viewBox="0 0 37 37" fill="none" xmlns="http://www.w3.org/2000/svg">
<path d="M6.26959 13.1591L8.30644 33.3389C8.41929 34.1917 12.5374 36.9963 18.4999 37C24.4662 36.9963 28.5843 34.1917 28.6953 33.3389L30.734 13.1591C27.6186 14.9017 22.9621 15.725 18.4999 15.725C14.0414 15.725 9.38314 14.9017 6.26959 13.1591V13.1591ZM24.3607 2.7935L22.7716 1.03415C22.1574 0.1591 21.4914 0 20.1945 0H16.8072C15.5122 0 14.8443 0.1591 14.232 1.03415L12.6428 2.7935C7.88834 3.62415 4.43994 5.8275 4.43994 7.45365V7.76815C4.43994 10.6301 10.7355 12.95 18.4999 12.95C26.2662 12.95 32.5618 10.6301 32.5618 7.76815V7.45365C32.5618 5.8275 29.1152 3.62415 24.3607 2.7935V2.7935ZM22.3294 8.029L20.3499 5.55H16.6499L14.6741 8.029H11.5291C11.5291 8.029 14.9738 3.92015 15.4345 3.3633C15.786 2.9378 16.1449 2.775 16.6111 2.775H20.3906C20.8587 2.775 21.2176 2.9378 21.5691 3.3633C22.0279 3.92015 25.4744 8.029 25.4744 8.029H22.3294Z" fill="black"/>
</svg>
